<?xml version="1.0" encoding="utf-8"?>
<!-- Generator: Adobe Illustrator 15.0.0, SVG Export Plug-In . SVG Version: 6.00 Build 0)  -->
<!DOCTYPE svg PUBLIC "-//W3C//DTD SVG 1.1//EN" "http://www.w3.org/Graphics/SVG/1.1/DTD/svg11.dtd">
<svg version="1.1"
	 id="Layer_1" xmlns:dc="http://purl.org/dc/elements/1.1/" xmlns:cc="http://creativecommons.org/ns#" xmlns:rdf="http://www.w3.org/1999/02/22-rdf-syntax-ns#" xmlns:svg="http://www.w3.org/2000/svg" xmlns:sodipodi="http://sodipodi.sourceforge.net/DTD/sodipodi-0.dtd" xmlns:inkscape="http://www.inkscape.org/namespaces/inkscape" sodipodi:docname="case2.svg" inkscape:version="0.48.4 r9939"
	 xmlns="http://www.w3.org/2000/svg" xmlns:xlink="http://www.w3.org/1999/xlink" x="0px" y="0px" width="1252px" height="1024px"
	 viewBox="0 0 1252 1024" enable-background="new 0 0 1252 1024" xml:space="preserve">
<line fill="none" stroke="#000000" stroke-width="1.0631" stroke-miterlimit="10" x1="814.091" y1="342.5" x2="823.334" y2="342.5"/>
<line fill="none" stroke="#000000" stroke-width="1.0631" stroke-miterlimit="10" x1="814.091" y1="373.5" x2="823.334" y2="373.5"/>
<sodipodi:namedview  id="namedview249" inkscape:cy="512" inkscape:cx="626" inkscape:zoom="0.2284345" showgrid="false" guidetolerance="10" gridtolerance="10" objecttolerance="10" borderopacity="1" bordercolor="#666666" pagecolor="#ffffff" inkscape:current-layer="Layer_1" inkscape:window-y="0" inkscape:window-x="0" inkscape:window-height="480" inkscape:window-width="640" inkscape:pageshadow="2" inkscape:pageopacity="0" inkscape:window-maximized="0">
	</sodipodi:namedview>
<path id="path3" fill="none" stroke="#000000" stroke-width="1.0631" stroke-miterlimit="10" d="M427.334,241.971
	c0,15.654-14.343,28.346-32.036,28.346H74.945c-17.693,0-32.036-12.691-32.036-28.346V71.892c0-15.655,14.342-28.347,32.036-28.347
	h320.354c17.693,0,32.035,12.691,32.035,28.347V241.971L427.334,241.971z"/>
<path id="circle3022_1_" fill="none" stroke="#010101" stroke-width="0.5399" stroke-miterlimit="10" d="M75.091,63.818
	c0,5.479-4.441,9.921-9.921,9.921c-5.479,0-9.921-4.442-9.921-9.921c0-5.479,4.442-9.921,9.921-9.921
	C70.649,53.897,75.091,58.339,75.091,63.818z"/>
<path id="circle3022_3_" fill="none" stroke="#010101" stroke-width="0.5399" stroke-miterlimit="10" d="M416.092,64.818
	c0,5.479-4.442,9.921-9.921,9.921c-5.479,0-9.921-4.442-9.921-9.921c0-5.479,4.441-9.921,9.921-9.921
	C411.649,54.897,416.092,59.339,416.092,64.818z"/>
<path id="circle3022_4_" fill="none" stroke="#010101" stroke-width="0.5399" stroke-miterlimit="10" d="M417.092,247.818
	c0,5.479-4.442,9.921-9.921,9.921c-5.479,0-9.921-4.442-9.921-9.921c0-5.479,4.441-9.921,9.921-9.921
	C412.649,237.897,417.092,242.339,417.092,247.818z"/>
<path id="circle3022_2_" fill="none" stroke="#010101" stroke-width="0.5399" stroke-miterlimit="10" d="M74.091,248.818
	c0,5.479-4.441,9.921-9.921,9.921c-5.479,0-9.921-4.442-9.921-9.921c0-5.479,4.442-9.921,9.921-9.921
	C69.649,238.897,74.091,243.339,74.091,248.818z"/>
<path id="circle2996" fill="none" stroke="#010101" stroke-width="0.7327" stroke-miterlimit="10" d="M209.122,241.818
	c0,7.437-6.028,13.465-13.465,13.465c-7.436,0-13.464-6.028-13.464-13.465c0-7.436,6.028-13.464,13.464-13.464
	C203.094,228.354,209.122,234.382,209.122,241.818z"/>
<path id="circle2996_1_" fill="none" stroke="#010101" stroke-width="0.3702" stroke-miterlimit="10" d="M306.241,72.739
	c0,3.757-3.046,6.803-6.803,6.803c-3.758,0-6.804-3.046-6.804-6.803c0-3.757,3.046-6.803,6.804-6.803
	C303.195,65.936,306.241,68.982,306.241,72.739z"/>
<path id="line85" fill="none" stroke="#000000" stroke-width="0.9925" stroke-miterlimit="10" d="M1924.203,320.864v62.711"/>
<path id="circle3022_20_" fill="none" stroke="#010101" stroke-width="0.5399" stroke-miterlimit="10" d="M1581.203,304.06
	c0,5.479-4.443,9.921-9.922,9.921s-9.92-4.442-9.92-9.921s4.441-9.921,9.92-9.921S1581.203,298.581,1581.203,304.06z"/>
<path id="circle3022_19_" fill="none" stroke="#010101" stroke-width="0.5399" stroke-miterlimit="10" d="M1922.203,305.06
	c0,5.479-4.443,9.921-9.922,9.921s-9.922-4.442-9.922-9.921s4.443-9.921,9.922-9.921S1922.203,299.581,1922.203,305.06z"/>
<path id="circle3022_18_" fill="none" stroke="#010101" stroke-width="0.5399" stroke-miterlimit="10" d="M1923.203,488.059
	c0,5.479-4.443,9.921-9.922,9.921s-9.922-4.442-9.922-9.921c0-5.479,4.443-9.921,9.922-9.921S1923.203,482.58,1923.203,488.059z"/>
<path id="circle3022_17_" fill="none" stroke="#010101" stroke-width="0.5399" stroke-miterlimit="10" d="M1580.203,489.059
	c0,5.479-4.443,9.921-9.922,9.921s-9.92-4.442-9.92-9.921c0-5.479,4.441-9.921,9.92-9.921S1580.203,483.58,1580.203,489.059z"/>
<path id="path101" fill="none" stroke="#000000" stroke-width="1.0631" stroke-miterlimit="10" d="M823.334,241.971
	c0,15.654-14.342,28.346-32.034,28.346H470.945c-17.692,0-32.036-12.691-32.036-28.346V71.892c0-15.655,14.343-28.347,32.036-28.347
	H791.3c17.692,0,32.034,12.691,32.034,28.347V241.971z"/>
<path id="circle3022_24_" fill="none" stroke="#010101" stroke-width="0.5399" stroke-miterlimit="10" d="M471.092,63.818
	c0,5.479-4.442,9.921-9.921,9.921c-5.479,0-9.921-4.442-9.921-9.921c0-5.479,4.441-9.921,9.921-9.921
	C466.649,53.897,471.092,58.339,471.092,63.818z"/>
<path id="circle3022_23_" fill="none" stroke="#010101" stroke-width="0.5399" stroke-miterlimit="10" d="M812.092,64.818
	c0,5.479-4.442,9.921-9.921,9.921c-5.479,0-9.922-4.442-9.922-9.921c0-5.479,4.442-9.921,9.922-9.921
	C807.649,54.897,812.092,59.339,812.092,64.818z"/>
<path id="circle3022_22_" fill="none" stroke="#010101" stroke-width="0.5399" stroke-miterlimit="10" d="M813.092,247.817
	c0,5.479-4.442,9.921-9.921,9.921c-5.479,0-9.922-4.442-9.922-9.921c0-5.479,4.442-9.921,9.922-9.921
	C808.649,237.896,813.092,242.338,813.092,247.817z"/>
<path id="circle3022_21_" fill="none" stroke="#010101" stroke-width="0.5399" stroke-miterlimit="10" d="M470.092,248.817
	c0,5.479-4.442,9.921-9.921,9.921c-5.479,0-9.921-4.442-9.921-9.921c0-5.479,4.441-9.921,9.921-9.921
	C465.649,238.896,470.092,243.338,470.092,248.817z"/>
<path fill="none" stroke="#000000" stroke-width="1.0631" stroke-miterlimit="10" d="M823.334,373.5v109.472h-0.001
	c0,15.654-14.342,28.346-32.034,28.346H470.944c-17.692,0-32.035-12.691-32.035-28.346V312.892
	c0-15.655,14.343-28.347,32.035-28.347h320.354c17.692,0,32.035,12.691,32.035,28.347V342.5"/>
<path id="circle3022_28_" fill="none" stroke="#010101" stroke-width="0.5399" stroke-miterlimit="10" d="M471.091,304.818
	c0,5.479-4.442,9.921-9.922,9.921c-5.479,0-9.921-4.442-9.921-9.921c0-5.479,4.442-9.921,9.921-9.921
	C466.648,294.897,471.091,299.339,471.091,304.818z"/>
<path fill="none" stroke="#010101" stroke-width="1.157" stroke-miterlimit="10" d="M814.091,342.5v-20.878"/>
<path fill="none" stroke="#010101" stroke-width="1.157" stroke-miterlimit="10" d="M814.429,321.622
	c-2.964,1.568-6.342,2.456-9.928,2.456c-11.742,0-21.261-9.519-21.261-21.26c0-3.515,0.854-6.83,2.362-9.75v0.012
	c-0.634-0.034-1.272-0.051-1.917-0.051H479.651c-0.531,0-1.061,0.012-1.586,0.035l0.001,0.003c1.51,2.92,2.362,6.236,2.362,9.75
	c0,11.741-9.519,21.26-21.26,21.26c-3.586,0-6.965-0.888-9.929-2.456l0.009,0.001v150.9h-0.008c2.964-1.567,6.342-2.456,9.928-2.456
	c11.742,0,21.261,9.52,21.261,21.26c0,3.516-0.854,6.83-2.362,9.751l-0.004,0.205c0.525,0.023,1.056,0.035,1.588,0.035h304.035
	c0.648,0,1.291-0.018,1.928-0.051l-0.011-0.189c-1.51-2.921-2.362-6.235-2.362-9.751c0-11.74,9.519-21.26,21.26-21.26
	c3.587,0,6.965,0.889,9.929,2.456h-0.339V373.5"/>
<path id="circle3022_27_" fill="none" stroke="#010101" stroke-width="0.5399" stroke-miterlimit="10" d="M812.091,305.818
	c0,5.479-4.442,9.921-9.922,9.921c-5.479,0-9.921-4.442-9.921-9.921c0-5.479,4.442-9.921,9.921-9.921
	C807.648,295.897,812.091,300.339,812.091,305.818z"/>
<path id="circle3022_26_" fill="none" stroke="#010101" stroke-width="0.5399" stroke-miterlimit="10" d="M813.091,488.817
	c0,5.479-4.442,9.921-9.922,9.921c-5.479,0-9.921-4.442-9.921-9.921c0-5.479,4.442-9.921,9.921-9.921
	C808.648,478.896,813.091,483.338,813.091,488.817z"/>
<path id="circle3022_25_" fill="none" stroke="#010101" stroke-width="0.5399" stroke-miterlimit="10" d="M470.091,489.817
	c0,5.479-4.442,9.921-9.922,9.921c-5.479,0-9.921-4.442-9.921-9.921c0-5.479,4.442-9.921,9.921-9.921
	C465.648,479.896,470.091,484.338,470.091,489.817z"/>
<path id="path107_1_" fill="none" stroke="#000000" stroke-width="1.0631" stroke-miterlimit="10" d="M421.334,482.971
	c0,15.654-14.342,28.346-32.034,28.346H68.945c-17.692,0-32.035-12.691-32.035-28.346V312.892c0-15.655,14.343-28.347,32.035-28.347
	H389.3c17.692,0,32.035,12.691,32.035,28.347L421.334,482.971L421.334,482.971z"/>
<path id="circle3022_8_" fill="none" stroke="#010101" stroke-width="0.5399" stroke-miterlimit="10" d="M69.092,304.818
	c0,5.479-4.442,9.921-9.922,9.921c-5.479,0-9.921-4.442-9.921-9.921c0-5.479,4.442-9.921,9.921-9.921
	C64.649,294.897,69.092,299.339,69.092,304.818z"/>
<path id="path124_1_" fill="none" stroke="#010101" stroke-width="1.157" stroke-miterlimit="10" d="M412.43,321.622
	c-2.964,1.568-6.342,2.456-9.928,2.456c-11.742,0-21.261-9.519-21.261-21.26c0-3.515,0.854-6.83,2.362-9.75v0.012
	c-0.634-0.034-1.272-0.051-1.917-0.051H77.652c-0.531,0-1.061,0.012-1.586,0.035l0.001,0.003c1.51,2.92,2.362,6.236,2.362,9.75
	c0,11.741-9.519,21.26-21.26,21.26c-3.586,0-6.965-0.888-9.929-2.456l0.009,0.001v150.9h-0.008c2.964-1.567,6.342-2.456,9.928-2.456
	c11.742,0,21.261,9.52,21.261,21.26c0,3.516-0.854,6.83-2.362,9.751l-0.004,0.205c0.525,0.023,1.056,0.035,1.588,0.035h304.035
	c0.648,0,1.291-0.018,1.928-0.051l-0.011-0.189c-1.51-2.921-2.362-6.235-2.362-9.751c0-11.74,9.519-21.26,21.26-21.26
	c3.587,0,6.965,0.889,9.929,2.456h-0.339v-150.9"/>
<path id="circle3022_7_" fill="none" stroke="#010101" stroke-width="0.5399" stroke-miterlimit="10" d="M410.092,305.818
	c0,5.479-4.442,9.921-9.922,9.921c-5.479,0-9.921-4.442-9.921-9.921c0-5.479,4.442-9.921,9.921-9.921
	C405.649,295.897,410.092,300.339,410.092,305.818z"/>
<path id="circle3022_6_" fill="none" stroke="#010101" stroke-width="0.5399" stroke-miterlimit="10" d="M411.092,488.817
	c0,5.479-4.442,9.921-9.922,9.921c-5.479,0-9.921-4.442-9.921-9.921c0-5.479,4.442-9.921,9.921-9.921
	C406.649,478.896,411.092,483.338,411.092,488.817z"/>
<path id="circle3022_5_" fill="none" stroke="#010101" stroke-width="0.5399" stroke-miterlimit="10" d="M68.092,489.817
	c0,5.479-4.442,9.921-9.922,9.921c-5.479,0-9.921-4.442-9.921-9.921c0-5.479,4.442-9.921,9.921-9.921
	C63.649,479.896,68.092,484.338,68.092,489.817z"/>
<path id="path107_2_" fill="none" stroke="#000000" stroke-width="1.0631" stroke-miterlimit="10" d="M421.334,715.971
	c0,15.654-14.342,28.346-32.034,28.346H68.945c-17.692,0-32.035-12.69-32.035-28.346V545.893c0-15.656,14.343-28.348,32.035-28.348
	H389.3c17.692,0,32.035,12.691,32.035,28.348L421.334,715.971L421.334,715.971z"/>
<path id="circle3022_12_" fill="none" stroke="#010101" stroke-width="0.5399" stroke-miterlimit="10" d="M69.092,537.818
	c0,5.479-4.442,9.921-9.922,9.921c-5.479,0-9.921-4.442-9.921-9.921c0-5.479,4.442-9.922,9.921-9.922
	C64.649,527.896,69.092,532.339,69.092,537.818z"/>
<path id="path124_2_" fill="none" stroke="#010101" stroke-width="1.157" stroke-miterlimit="10" d="M412.43,554.622
	c-2.964,1.567-6.342,2.456-9.928,2.456c-11.742,0-21.261-9.52-21.261-21.26c0-3.516,0.854-6.83,2.362-9.75v0.012
	c-0.634-0.034-1.272-0.051-1.917-0.051H77.652c-0.531,0-1.061,0.012-1.586,0.035l0.001,0.002c1.51,2.92,2.362,6.236,2.362,9.75
	c0,11.742-9.519,21.261-21.26,21.261c-3.586,0-6.965-0.888-9.929-2.456l0.009,0.001v150.899h-0.008
	c2.964-1.566,6.342-2.455,9.928-2.455c11.742,0,21.261,9.52,21.261,21.26c0,3.516-0.854,6.83-2.362,9.751l-0.004,0.205
	c0.525,0.022,1.056,0.034,1.588,0.034h304.035c0.648,0,1.291-0.018,1.928-0.051l-0.011-0.188c-1.51-2.921-2.362-6.235-2.362-9.751
	c0-11.74,9.519-21.26,21.26-21.26c3.587,0,6.965,0.889,9.929,2.455h-0.339V554.622"/>
<path id="circle3022_11_" fill="none" stroke="#010101" stroke-width="0.5399" stroke-miterlimit="10" d="M410.092,538.818
	c0,5.479-4.442,9.921-9.922,9.921c-5.479,0-9.921-4.442-9.921-9.921c0-5.479,4.442-9.922,9.921-9.922
	C405.649,528.896,410.092,533.339,410.092,538.818z"/>
<path id="circle3022_10_" fill="none" stroke="#010101" stroke-width="0.5399" stroke-miterlimit="10" d="M411.092,721.816
	c0,5.48-4.442,9.922-9.922,9.922c-5.479,0-9.921-4.441-9.921-9.922c0-5.479,4.442-9.92,9.921-9.92
	C406.649,711.896,411.092,716.338,411.092,721.816z"/>
<path id="circle3022_9_" fill="none" stroke="#010101" stroke-width="0.5399" stroke-miterlimit="10" d="M68.092,722.816
	c0,5.48-4.442,9.922-9.922,9.922c-5.479,0-9.921-4.441-9.921-9.922c0-5.479,4.442-9.92,9.921-9.92
	C63.649,712.896,68.092,717.338,68.092,722.816z"/>
<path id="path107_3_" fill="none" stroke="#000000" stroke-width="1.0631" stroke-miterlimit="10" d="M819.334,715.971
	c0,15.654-14.342,28.346-32.034,28.346H466.945c-17.692,0-32.035-12.69-32.035-28.346V545.893c0-15.656,14.343-28.348,32.035-28.348
	H787.3c17.692,0,32.035,12.691,32.035,28.348L819.334,715.971L819.334,715.971z"/>
<path id="circle3022_16_" fill="none" stroke="#010101" stroke-width="0.5399" stroke-miterlimit="10" d="M467.092,537.818
	c0,5.479-4.442,9.921-9.922,9.921c-5.479,0-9.921-4.442-9.921-9.921c0-5.479,4.442-9.922,9.921-9.922
	C462.649,527.896,467.092,532.339,467.092,537.818z"/>
<path id="path124_3_" fill="none" stroke="#010101" stroke-width="1.157" stroke-miterlimit="10" d="M810.43,554.622
	c-2.964,1.567-6.342,2.456-9.928,2.456c-11.742,0-21.261-9.52-21.261-21.26c0-3.516,0.854-6.83,2.362-9.75v0.012
	c-0.634-0.034-1.272-0.051-1.917-0.051H475.652c-0.531,0-1.061,0.012-1.586,0.035l0.001,0.002c1.51,2.92,2.362,6.236,2.362,9.75
	c0,11.742-9.519,21.261-21.26,21.261c-3.586,0-6.965-0.888-9.929-2.456l0.009,0.001v150.899h-0.008
	c2.964-1.566,6.342-2.455,9.928-2.455c11.742,0,21.261,9.52,21.261,21.26c0,3.516-0.854,6.83-2.362,9.751l-0.004,0.205
	c0.525,0.022,1.056,0.034,1.588,0.034h304.035c0.648,0,1.291-0.018,1.928-0.051l-0.011-0.188c-1.51-2.921-2.362-6.235-2.362-9.751
	c0-11.74,9.519-21.26,21.26-21.26c3.587,0,6.965,0.889,9.929,2.455h-0.339V554.622"/>
<path id="circle3022_15_" fill="none" stroke="#010101" stroke-width="0.5399" stroke-miterlimit="10" d="M808.092,538.818
	c0,5.479-4.442,9.921-9.922,9.921c-5.479,0-9.921-4.442-9.921-9.921c0-5.479,4.442-9.922,9.921-9.922
	C803.649,528.896,808.092,533.339,808.092,538.818z"/>
<path id="circle3022_14_" fill="none" stroke="#010101" stroke-width="0.5399" stroke-miterlimit="10" d="M809.092,721.816
	c0,5.48-4.442,9.922-9.922,9.922c-5.479,0-9.921-4.441-9.921-9.922c0-5.479,4.442-9.92,9.921-9.92
	C804.649,711.896,809.092,716.338,809.092,721.816z"/>
<path id="circle3022_13_" fill="none" stroke="#010101" stroke-width="0.5399" stroke-miterlimit="10" d="M466.092,722.816
	c0,5.48-4.442,9.922-9.922,9.922c-5.479,0-9.921-4.441-9.921-9.922c0-5.479,4.442-9.92,9.921-9.92
	C461.649,712.896,466.092,717.338,466.092,722.816z"/>
<path id="path107_4_" fill="none" stroke="#000000" stroke-width="1.0631" stroke-miterlimit="10" d="M1220.334,715.971
	c0,15.654-14.342,28.346-32.034,28.346H867.945c-17.692,0-32.035-12.69-32.035-28.346V545.893c0-15.656,14.343-28.348,32.035-28.348
	H1188.3c17.692,0,32.035,12.691,32.035,28.348L1220.334,715.971L1220.334,715.971z"/>
<path id="circle3022_36_" fill="none" stroke="#010101" stroke-width="0.5399" stroke-miterlimit="10" d="M868.092,537.818
	c0,5.479-4.442,9.921-9.922,9.921c-5.479,0-9.921-4.442-9.921-9.921c0-5.479,4.442-9.922,9.921-9.922
	C863.649,527.896,868.092,532.339,868.092,537.818z"/>
<path id="path124_4_" fill="none" stroke="#010101" stroke-width="1.157" stroke-miterlimit="10" d="M1211.43,554.622
	c-2.964,1.567-6.342,2.456-9.928,2.456c-11.742,0-21.261-9.52-21.261-21.26c0-3.516,0.854-6.83,2.362-9.75v0.012
	c-0.634-0.034-1.272-0.051-1.917-0.051H876.652c-0.531,0-1.061,0.012-1.586,0.035l0.001,0.002c1.51,2.92,2.362,6.236,2.362,9.75
	c0,11.742-9.519,21.261-21.26,21.261c-3.586,0-6.965-0.888-9.929-2.456l0.009,0.001v150.899h-0.008
	c2.964-1.566,6.342-2.455,9.928-2.455c11.742,0,21.261,9.52,21.261,21.26c0,3.516-0.854,6.83-2.362,9.751l-0.004,0.205
	c0.525,0.022,1.056,0.034,1.588,0.034h304.035c0.648,0,1.291-0.018,1.928-0.051l-0.011-0.188c-1.51-2.921-2.362-6.235-2.362-9.751
	c0-11.74,9.519-21.26,21.26-21.26c3.587,0,6.965,0.889,9.929,2.455h-0.339V554.622"/>
<path id="circle3022_35_" fill="none" stroke="#010101" stroke-width="0.5399" stroke-miterlimit="10" d="M1209.092,538.818
	c0,5.479-4.442,9.921-9.922,9.921c-5.479,0-9.921-4.442-9.921-9.921c0-5.479,4.442-9.922,9.921-9.922
	C1204.649,528.896,1209.092,533.339,1209.092,538.818z"/>
<path id="circle3022_34_" fill="none" stroke="#010101" stroke-width="0.5399" stroke-miterlimit="10" d="M1210.092,721.816
	c0,5.48-4.442,9.922-9.922,9.922c-5.479,0-9.921-4.441-9.921-9.922c0-5.479,4.442-9.92,9.921-9.92
	C1205.649,711.896,1210.092,716.338,1210.092,721.816z"/>
<path id="circle3022_33_" fill="none" stroke="#010101" stroke-width="0.5399" stroke-miterlimit="10" d="M867.092,722.816
	c0,5.48-4.442,9.922-9.922,9.922c-5.479,0-9.921-4.441-9.921-9.922c0-5.479,4.442-9.92,9.921-9.92
	C862.649,712.896,867.092,717.338,867.092,722.816z"/>
<path id="path107_5_" fill="none" stroke="#000000" stroke-width="1.0631" stroke-miterlimit="10" d="M1220.334,956.971
	c0,15.654-14.342,28.346-32.034,28.346H867.945c-17.692,0-32.035-12.69-32.035-28.346V786.893c0-15.656,14.343-28.348,32.035-28.348
	H1188.3c17.692,0,32.035,12.691,32.035,28.348L1220.334,956.971L1220.334,956.971z"/>
<path id="circle3022_40_" fill="none" stroke="#010101" stroke-width="0.5399" stroke-miterlimit="10" d="M868.092,778.818
	c0,5.479-4.442,9.921-9.922,9.921c-5.479,0-9.921-4.442-9.921-9.921c0-5.479,4.442-9.922,9.921-9.922
	C863.649,768.896,868.092,773.339,868.092,778.818z"/>
<path id="path124_5_" fill="none" stroke="#010101" stroke-width="1.157" stroke-miterlimit="10" d="M1211.43,795.622
	c-2.964,1.567-6.342,2.456-9.928,2.456c-11.742,0-21.261-9.52-21.261-21.26c0-3.516,0.854-6.83,2.362-9.75v0.012
	c-0.634-0.034-1.272-0.051-1.917-0.051H876.652c-0.531,0-1.061,0.012-1.586,0.035l0.001,0.002c1.51,2.92,2.362,6.236,2.362,9.75
	c0,11.742-9.519,21.261-21.26,21.261c-3.586,0-6.965-0.888-9.929-2.456l0.009,0.001v150.899h-0.008
	c2.964-1.566,6.342-2.455,9.928-2.455c11.742,0,21.261,9.52,21.261,21.26c0,3.516-0.854,6.83-2.362,9.751l-0.004,0.205
	c0.525,0.022,1.056,0.034,1.588,0.034h304.035c0.648,0,1.291-0.018,1.928-0.051l-0.011-0.188c-1.51-2.921-2.362-6.235-2.362-9.751
	c0-11.74,9.519-21.26,21.26-21.26c3.587,0,6.965,0.889,9.929,2.455h-0.339V795.622"/>
<path id="circle3022_39_" fill="none" stroke="#010101" stroke-width="0.5399" stroke-miterlimit="10" d="M1209.092,779.818
	c0,5.479-4.442,9.921-9.922,9.921c-5.479,0-9.921-4.442-9.921-9.921c0-5.479,4.442-9.922,9.921-9.922
	C1204.649,769.896,1209.092,774.339,1209.092,779.818z"/>
<path id="circle3022_38_" fill="none" stroke="#010101" stroke-width="0.5399" stroke-miterlimit="10" d="M1210.092,962.816
	c0,5.48-4.442,9.922-9.922,9.922c-5.479,0-9.921-4.441-9.921-9.922c0-5.479,4.442-9.92,9.921-9.92
	C1205.649,952.896,1210.092,957.338,1210.092,962.816z"/>
<path id="circle3022_37_" fill="none" stroke="#010101" stroke-width="0.5399" stroke-miterlimit="10" d="M867.092,963.816
	c0,5.48-4.442,9.922-9.922,9.922c-5.479,0-9.921-4.441-9.921-9.922c0-5.479,4.442-9.92,9.921-9.92
	C862.649,953.896,867.092,958.338,867.092,963.816z"/>
<path id="path107_6_" fill="none" stroke="#000000" stroke-width="1.0631" stroke-miterlimit="10" d="M819.334,956.971
	c0,15.654-14.342,28.346-32.034,28.346H466.945c-17.692,0-32.035-12.69-32.035-28.346V786.893c0-15.656,14.343-28.348,32.035-28.348
	H787.3c17.692,0,32.035,12.691,32.035,28.348L819.334,956.971L819.334,956.971z"/>
<path id="circle3022_44_" fill="none" stroke="#010101" stroke-width="0.5399" stroke-miterlimit="10" d="M467.092,778.818
	c0,5.479-4.442,9.921-9.922,9.921c-5.479,0-9.921-4.442-9.921-9.921c0-5.479,4.442-9.922,9.921-9.922
	C462.649,768.896,467.092,773.339,467.092,778.818z"/>
<path id="path124_6_" fill="none" stroke="#010101" stroke-width="1.157" stroke-miterlimit="10" d="M810.43,795.622
	c-2.964,1.567-6.342,2.456-9.928,2.456c-11.742,0-21.261-9.52-21.261-21.26c0-3.516,0.854-6.83,2.362-9.75v0.012
	c-0.634-0.034-1.272-0.051-1.917-0.051H475.652c-0.531,0-1.061,0.012-1.586,0.035l0.001,0.002c1.51,2.92,2.362,6.236,2.362,9.75
	c0,11.742-9.519,21.261-21.26,21.261c-3.586,0-6.965-0.888-9.929-2.456l0.009,0.001v150.899h-0.008
	c2.964-1.566,6.342-2.455,9.928-2.455c11.742,0,21.261,9.52,21.261,21.26c0,3.516-0.854,6.83-2.362,9.751l-0.004,0.205
	c0.525,0.022,1.056,0.034,1.588,0.034h304.035c0.648,0,1.291-0.018,1.928-0.051l-0.011-0.188c-1.51-2.921-2.362-6.235-2.362-9.751
	c0-11.74,9.519-21.26,21.26-21.26c3.587,0,6.965,0.889,9.929,2.455h-0.339V795.622"/>
<path id="circle3022_43_" fill="none" stroke="#010101" stroke-width="0.5399" stroke-miterlimit="10" d="M808.092,779.818
	c0,5.479-4.442,9.921-9.922,9.921c-5.479,0-9.921-4.442-9.921-9.921c0-5.479,4.442-9.922,9.921-9.922
	C803.649,769.896,808.092,774.339,808.092,779.818z"/>
<path id="circle3022_42_" fill="none" stroke="#010101" stroke-width="0.5399" stroke-miterlimit="10" d="M809.092,962.816
	c0,5.48-4.442,9.922-9.922,9.922c-5.479,0-9.921-4.441-9.921-9.922c0-5.479,4.442-9.92,9.921-9.92
	C804.649,952.896,809.092,957.338,809.092,962.816z"/>
<path id="circle3022_41_" fill="none" stroke="#010101" stroke-width="0.5399" stroke-miterlimit="10" d="M466.092,963.816
	c0,5.48-4.442,9.922-9.922,9.922c-5.479,0-9.921-4.441-9.921-9.922c0-5.479,4.442-9.92,9.921-9.92
	C461.649,953.896,466.092,958.338,466.092,963.816z"/>
<path id="path107_7_" fill="none" stroke="#000000" stroke-width="1.0631" stroke-miterlimit="10" d="M418.334,956.971
	c0,15.654-14.342,28.346-32.034,28.346H65.945c-17.692,0-32.035-12.69-32.035-28.346V786.893c0-15.656,14.343-28.348,32.035-28.348
	H386.3c17.692,0,32.035,12.691,32.035,28.348L418.334,956.971L418.334,956.971z"/>
<path id="circle3022_48_" fill="none" stroke="#010101" stroke-width="0.5399" stroke-miterlimit="10" d="M66.092,778.818
	c0,5.479-4.442,9.921-9.922,9.921c-5.479,0-9.921-4.442-9.921-9.921c0-5.479,4.442-9.922,9.921-9.922
	C61.649,768.896,66.092,773.339,66.092,778.818z"/>
<path id="path124_7_" fill="none" stroke="#010101" stroke-width="1.157" stroke-miterlimit="10" d="M409.43,795.622
	c-2.964,1.567-6.342,2.456-9.928,2.456c-11.742,0-21.261-9.52-21.261-21.26c0-3.516,0.854-6.83,2.362-9.75v0.012
	c-0.634-0.034-1.272-0.051-1.917-0.051H74.652c-0.531,0-1.061,0.012-1.586,0.035l0.001,0.002c1.51,2.92,2.362,6.236,2.362,9.75
	c0,11.742-9.519,21.261-21.26,21.261c-3.586,0-6.965-0.888-9.929-2.456l0.009,0.001v150.899h-0.008
	c2.964-1.566,6.342-2.455,9.928-2.455c11.742,0,21.261,9.52,21.261,21.26c0,3.516-0.854,6.83-2.362,9.751l-0.004,0.205
	c0.525,0.022,1.056,0.034,1.588,0.034h304.035c0.648,0,1.291-0.018,1.928-0.051l-0.011-0.188c-1.51-2.921-2.362-6.235-2.362-9.751
	c0-11.74,9.519-21.26,21.26-21.26c3.587,0,6.965,0.889,9.929,2.455h-0.339V795.622"/>
<path id="circle3022_47_" fill="none" stroke="#010101" stroke-width="0.5399" stroke-miterlimit="10" d="M407.092,779.818
	c0,5.479-4.442,9.921-9.922,9.921c-5.479,0-9.921-4.442-9.921-9.921c0-5.479,4.442-9.922,9.921-9.922
	C402.649,769.896,407.092,774.339,407.092,779.818z"/>
<path id="circle3022_46_" fill="none" stroke="#010101" stroke-width="0.5399" stroke-miterlimit="10" d="M408.092,962.816
	c0,5.48-4.442,9.922-9.922,9.922c-5.479,0-9.921-4.441-9.921-9.922c0-5.479,4.442-9.92,9.921-9.92
	C403.649,952.896,408.092,957.338,408.092,962.816z"/>
<path id="circle3022_45_" fill="none" stroke="#010101" stroke-width="0.5399" stroke-miterlimit="10" d="M65.092,963.816
	c0,5.48-4.442,9.922-9.922,9.922c-5.479,0-9.921-4.441-9.921-9.922c0-5.479,4.442-9.92,9.921-9.92
	C60.649,953.896,65.092,958.338,65.092,963.816z"/>
<path id="line247" fill="none" stroke="#000000" stroke-width="1.0631" stroke-miterlimit="10" d="M1924.203,383.575h9.242v-71.441
	c0-15.656-14.342-28.347-32.035-28.347h-320.354c-17.693,0-32.037,12.692-32.037,28.347v170.079
	c0,15.655,14.344,28.347,32.037,28.347h320.354c17.693,0,32.035-12.692,32.035-28.347v-70.638h-9.242v60.189l0.338-0.001
	c-2.963-1.566-6.342-2.455-9.928-2.455c-11.742,0-21.26,9.52-21.26,21.26c0,3.516,0.852,6.83,2.361,9.751l0.012,0.188
	c-0.637,0.033-1.279,0.052-1.928,0.052h-304.035c-0.533,0-1.063-0.013-1.588-0.035l0.004-0.205c1.508-2.921,2.361-6.235,2.361-9.751
	c0-11.74-9.518-21.26-21.26-21.26c-3.584,0-6.963,0.889-9.928,2.456h0.008v-150.9l-0.008-0.001c2.963,1.568,6.342,2.456,9.928,2.456
	c11.74,0,21.26-9.52,21.26-21.26c0-3.514-0.854-6.83-2.363-9.75v-0.003c0.525-0.023,1.055-0.035,1.586-0.035h304.035
	c0.646,0,1.283,0.017,1.918,0.051l-0.002-0.012c-1.508,2.92-2.361,6.235-2.361,9.75c0,11.741,9.518,21.26,21.26,21.26
	c3.586,0,6.965-0.888,9.928-2.456"/>
<text transform="matrix(1 0 0 1 289.217 168.5972)" font-family="'Roboto-BlackItalic'" font-size="36">nuncha</text>
<text transform="matrix(1 0 0 1 376.3567 186.167)" font-family="'Roboto-BlackItalic'" font-size="15">v1.0</text>
</svg>
